# xmcd
#
# Track frame offsets: 
#        150
#        15572
#        28559
#        46667
#        63886
#        79983
#        95923
#        115018
#        131346
#        148238
#        165527
#        183087
#        198742
#        216886
#        245885
#
# Disc length: 3316 seconds
#
# Revision: 0
# Processed by: cddbd v1.5.2PL0 Copyright (c) Steve Scherf et al.
# Submitted via: ExactAudioCopy v0.99pb4
#
DISCID=d10cf20f
DTITLE=Lonestar - Playlist: The Very Best of
DYEAR=2008
DGENRE=
TTITLE0=Tequila Talkin'
TTITLE1=No News (edit)
TTITLE2=Amazed
TTITLE3=I've Gotta Find You
TTITLE4=Smile
TTITLE5=What About Now
TTITLE6=I'm Already There
TTITLE7=Unusually Unusual
TTITLE8=My Front Porch Looking In
TTITLE9=Walking In Memphis
TTITLE10=Let's Be Us Again
TTITLE11=Mr. Mom
TTITLE12=You're Like Comin' Home
TTITLE13=Mountains
TTITLE14=Data File
EXTD=
EXTT0=
EXTT1=
EXTT2=
EXTT3=
EXTT4=
EXTT5=
EXTT6=
EXTT7=
EXTT8=
EXTT9=
EXTT10=
EXTT11=
EXTT12=
EXTT13=
EXTT14=
PLAYORDER=
